<?xml version="1.0" encoding="UTF-8" standalone="no"?>
<svg
   xmlns:dc="http://purl.org/dc/elements/1.1/"
   xmlns:cc="http://creativecommons.org/ns#"
   xmlns:rdf="http://www.w3.org/1999/02/22-rdf-syntax-ns#"
   xmlns:svg="http://www.w3.org/2000/svg"
   xmlns="http://www.w3.org/2000/svg"
   xmlns:sodipodi="http://sodipodi.sourceforge.net/DTD/sodipodi-0.dtd"
   xmlns:inkscape="http://www.inkscape.org/namespaces/inkscape"
   id="svg8"
   version="1.1"
   viewBox="0 0 508 285.75"
   height="1080"
   width="1920"
   sodipodi:docname="Chaos-Bodensee.svg"
   inkscape:version="0.92.4 5da689c313, 2019-01-14">
  <title
     id="title821">Chaos Bodensee Logo</title>
  <sodipodi:namedview
     pagecolor="#ffffff"
     bordercolor="#666666"
     borderopacity="1"
     objecttolerance="10"
     gridtolerance="10"
     guidetolerance="10"
     inkscape:pageopacity="0"
     inkscape:pageshadow="2"
     inkscape:window-width="2556"
     inkscape:window-height="1392"
     id="namedview14"
     showgrid="false"
     units="px"
     inkscape:zoom="0.2346269"
     inkscape:cx="-274.90453"
     inkscape:cy="432.4591"
     inkscape:window-x="0"
     inkscape:window-y="22"
     inkscape:window-maximized="0"
     inkscape:current-layer="svg8" />
  <defs
     id="defs2" />
  <metadata
     id="metadata5">
    <rdf:RDF>
      <cc:Work
         rdf:about="">
        <dc:format>image/svg+xml</dc:format>
        <dc:type
           rdf:resource="http://purl.org/dc/dcmitype/StillImage" />
        <dc:title>Chaos Bodensee Logo</dc:title>
        <cc:license
           rdf:resource="http://creativecommons.org/licenses/by-sa/4.0/" />
        <dc:publisher>
          <cc:Agent>
            <dc:title>Chaos Bodensee</dc:title>
          </cc:Agent>
        </dc:publisher>
        <dc:source>https://github.com/chaos-bodensee/chaosbodensee-grafik</dc:source>
        <dc:contributor>
          <cc:Agent>
            <dc:title>L3D</dc:title>
          </cc:Agent>
        </dc:contributor>
      </cc:Work>
      <cc:License
         rdf:about="http://creativecommons.org/licenses/by-sa/4.0/">
        <cc:permits
           rdf:resource="http://creativecommons.org/ns#Reproduction" />
        <cc:permits
           rdf:resource="http://creativecommons.org/ns#Distribution" />
        <cc:requires
           rdf:resource="http://creativecommons.org/ns#Notice" />
        <cc:requires
           rdf:resource="http://creativecommons.org/ns#Attribution" />
        <cc:permits
           rdf:resource="http://creativecommons.org/ns#DerivativeWorks" />
        <cc:requires
           rdf:resource="http://creativecommons.org/ns#ShareAlike" />
      </cc:License>
    </rdf:RDF>
  </metadata>
  <g
     transform="translate(236.01267,-29.4473)"
     id="layer1">
    <path
       style="fill:#009ee0;fill-opacity:1;stroke:none;stroke-width:0.90685666;stroke-linecap:square;stroke-linejoin:miter;stroke-miterlimit:4;stroke-dasharray:none"
       d="m 151.08183,226.30044 c -1.25328,-0.17175 -2.45317,-0.4424 -2.66658,-0.60147 -0.21331,-0.15907 -1.56832,-1.1785 -3.01107,-2.26548 -3.06137,-2.30639 -5.57021,-3.41665 -8.07744,-3.57457 -1.12604,-0.0715 -2.12704,-0.4515 -2.68796,-1.02185 -0.49154,-0.50003 -1.92031,-1.13804 -3.17511,-1.41791 -2.56009,-0.57115 -3.18127,-1.14184 -4.08498,-3.75358 -0.56572,-1.63507 -0.83387,-1.89189 -2.69692,-2.58373 -3.32934,-1.23623 -5.00018,-2.00876 -6.72166,-3.10772 -0.88875,-0.56735 -1.77165,-1.00053 -1.96196,-0.9626 -0.1903,0.038 -2.15414,-1.08225 -4.36409,-2.48956 -2.21,-1.40719 -4.77369,-2.86152 -5.69707,-3.23188 -2.02276,-0.81114 -3.17692,-2.80954 -3.35812,-5.81446 -0.0662,-1.09689 -0.38767,-2.69554 -0.71423,-3.55267 -0.50874,-1.33422 -0.93761,-1.69905 -2.982847,-2.5375 -1.313719,-0.53865 -2.674848,-0.92226 -3.024697,-0.85241 -0.349781,0.0703 -0.758555,0 -0.908311,-0.16506 -0.149768,-0.16069 -2.141619,-0.79698 -4.426459,-1.41411 -2.284805,-0.61704 -4.43002,-1.34552 -4.767155,-1.61882 -0.337113,-0.2733 -0.906974,-0.44102 -1.266264,-0.37266 -0.359278,0.068 -1.091817,-0.0196 -1.627859,-0.19607 -4.23063,-1.3899 -6.338648,-2.25303 -8.885595,-3.63821 -6.335813,-3.44592 -6.473823,-3.49918 -12.290262,-4.74799 -1.973144,-0.42361 -9.240782,-2.37878 -12.986815,-3.49388 -1.827007,-0.54385 -4.155348,-0.93828 -5.17412,-0.87663 -1.891626,0.11412 -6.18457,-0.71061 -6.727862,-1.2933 -0.386528,-0.41449 -6.319848,-2.05187 -6.967297,-1.92267 -0.269507,0.0542 9.849381,-15.09272 8.165376,-15.52649 -3.338399,-0.86 -17.651955,12.17105 -18.782479,9.92494 -0.356638,-0.70844 9.130753,-3.39942 8.725368,-3.66997 1.328811,-1.11559 7.503365,-13.86298 1.078485,-9.29257 -4.051319,2.91512 -19.6673312,10.18249 -22.4315432,10.21891 -1.423166,0.0184 -1.0117168,2.3576 -3.2433948,2.6566 -3.759438,0.50361 -4.209524,0.47248 -6.125149,-0.42315 -1.814339,-0.84838 -10.281782,3.38207 -11.640628,3.90033 -0.851738,0.32482 -6.602843,1.56799 -12.780209,2.7625 -11.173306,2.1607 -11.240006,2.17891 -12.843156,3.50092 -0.88636,0.7309 -2.50684,1.74205 -3.60119,2.24703 -2.24589,1.03649 -4.43048,2.64955 -4.94647,3.65238 -1.06711,2.07402 -4.68433,6.21859 -5.829,6.67897 -0.70983,0.2854 -1.79071,1.06864 -2.40192,1.74043 -0.61126,0.67178 -1.34241,1.26748 -1.62481,1.32385 -0.2824,0.0565 -1.03198,0.58014 -1.66572,1.16397 -0.63373,0.58383 -1.81443,1.19429 -2.62371,1.35659 -1.00264,0.20114 -1.80313,0.71004 -2.51271,1.59773 -0.68528,0.85724 -1.67205,1.49904 -2.88614,1.87725 -1.1169,0.34788 -2.14623,0.98427 -2.60866,1.61271 -1.09217,1.48419 -4.80612,2.21234 -6.61161,1.29607 -0.70681,-0.35871 -1.82136,-0.66256 -2.47678,-0.67512 -0.65537,-0.0127 -1.56211,-0.29785 -2.01492,-0.63386 -0.46921,-0.34811 -1.68547,-0.55882 -2.82789,-0.49 -2.48033,0.14962 -3.57229,-0.54441 -2.59185,-1.64729 0.5193,-0.58418 1.36807,-0.83397 3.82003,-1.1241 1.73379,-0.20506 3.65077,-0.2892 4.25999,-0.18685 1.91648,0.32195 3.96261,-0.34419 7.01788,-2.28461 1.62693,-1.03314 4.03793,-2.43192 5.35786,-3.10831 1.31984,-0.67639 2.55859,-1.46782 2.75277,-1.75876 0.19423,-0.29106 0.6501,-0.58833 1.01316,-0.66071 0.36304,-0.0726 1.37991,-1.13055 2.25968,-2.35135 0.87978,-1.22081 2.27924,-2.70303 3.10995,-3.29391 0.8307,-0.59085 1.59209,-1.29352 1.69191,-1.56152 0.0998,-0.268 0.65714,-0.58222 1.23844,-0.69817 1.75993,-0.35112 10.57399,-14.3315 10.20415,-16.18534 -0.0961,-0.48194 -0.72269,-1.17458 -1.39233,-1.53917 -0.66962,-0.36461 -1.59246,-0.89057 -2.05076,-1.16871 -0.45834,-0.27815 -1.55041,-0.49749 -2.42685,-0.48747 -0.87645,0.0115 -2.08374,-0.23054 -2.68292,-0.5345 -0.59914,-0.30408 -1.69129,-0.5603 -2.42704,-0.56941 -0.73576,-0.0115 -1.65356,-0.19031 -2.0396,-0.40252 -0.38605,-0.21222 -1.46826,-0.46856 -2.40496,-0.56966 -0.93669,-0.10144 -1.99284,-0.33588 -2.34698,-0.52182 -5.317884,-2.83591 10.991817,7.4e-4 16.820169,-1.53308 20.565261,4.07024 37.7621965,-3.63758 36.972242,-0.0589 0.342553,1.71703 6.8490387,-2.98711 2.529637,-1.26877 -35.52633,0.41443 -19.291712,9.40095 2.644176,1.40973 4.601354,-1.553 5.252606,-1.35232 8.246435,2.54073 1.886451,2.45313 2.6652,3.13702 4.1864715,3.67648 l 1.8689065,0.66277 2.106101,-1.37006 c 1.15835,-0.7535 2.453465,-1.82355 2.877997,-2.37786 0.688575,-0.89897 1.227187,-1.08721 4.988874,-1.74274 5.790408,-5.38735 13.573606,-6.85299 9.205148,2.71549 1.382971,0.40102 -1.057514,0.66095 0,0 0.732354,-0.45761 4.137271,-5.79803 2.748962,-7.3764 -0.700897,-0.79684 -5.493882,1.50707 -5.800379,0.73109 -0.761958,-1.76563 -7.847535,0.53729 -7.32684,-6.15772 -1.635408,-0.82877 -3.226634,-1.97893 -3.690288,-2.66742 -0.448346,-0.66566 -1.322479,-1.53951 -1.942482,-1.94192 -1.120934,-0.72734 -1.330537,-1.17216 -4.017916,-8.52866 -1.0938565,-2.99455 -2.4342145,-4.45188 -5.2057265,-5.66001 -7.1124385,-3.10059 -6.8619845,-3.03442 -9.9478315,-2.62499 -3.16884,0.4205 -4.811638,-0.0115 -8.430656,-2.18836 -2.523018,-1.52154 -5.074921,-2.32807 -10.004305,-3.16168 -2.252749,-0.38096 -4.322303,-0.78452 -4.598992,-0.8969 -0.276723,-0.11296 -1.094837,-0.45439 -1.818023,-0.75996 -1.5054,-0.63628 -16.46565,-10.73847 -16.55595,-11.17972 -0.0319,-0.16022 -0.54739,-0.4877 -1.1437,-0.72803 -1.2768,-0.51456 -2.48587,-3.32698 -2.04921,-4.76667 0.14952,-0.49288 1.16949,-1.5628 2.26663,-2.37763 1.60842,-1.19452 2.33334,-1.4941 3.74244,-1.54689 2.01217,-0.0749 2.91642,0.23203 6.89465,2.34259 4.31905,2.2914 5.57583,2.87166 6.02489,2.7821 0.22369,-0.045 1.00141,0.24333 1.728176,0.63973 0.726775,0.39653 1.8,0.77057 2.384973,0.83132 0.584961,0.0611 1.542191,0.35122 2.127164,0.64538 0.585031,0.29416 1.595745,0.54522 2.24611,0.55778 0.650387,0.0127 1.685216,0.38142 2.299628,0.81979 0.614435,0.43836 1.289029,0.76272 1.499104,0.72088 0.210053,-0.0415 1.914646,0.91362 3.787967,2.12347 5.931165,3.83046 5.720767,3.74782 8.743713,3.43302 1.798144,-0.18743 3.187006,-0.0818 4.00595,0.30292 0.689509,0.32437 1.476592,0.54534 1.749074,0.49093 0.2725625,-0.0542 1.2207675,0.19699 2.1071895,0.55859 4.353709,1.77604 6.103222,2.38616 6.573365,2.29233 0.283005,-0.0565 1.268638,0.21555 2.1903305,0.60458 0.921717,0.38891 2.118105,0.61887 2.658539,0.5111 0.540514,-0.1072 1.513063,0.0726 2.16126,0.40205 0.648232,0.32898 1.446428,0.54464 1.773708,0.4794 0.778761,-0.15538 4.149019,1.09873 6.44323,2.39769 1.297051,0.73437 1.965743,1.43635 2.334335,2.45048 0.284112,0.78174 0.929313,2.18271 1.433782,3.11315 0.504436,0.93044 1.170626,2.36115 1.480455,3.1792 0.449026,1.18601 1.27545,1.95034 4.075491,3.76961 1.931739,1.25515 4.396777,2.62822 5.477851,3.05125 1.08112,0.42304 2.900935,1.22841 4.043977,1.78977 1.143065,0.56124 2.783142,1.26449 3.644596,1.5627 0.861409,0.29818 2.483204,0.90968 3.603885,1.35899 1.12076,0.44932 3.629738,1.27937 5.575563,1.84452 1.945802,0.56527 4.035044,1.27879 4.642713,1.58575 0.607692,0.30695 1.396216,0.50071 1.752302,0.43051 0.356039,-0.0703 1.836839,0.1962 3.29054,0.59179 1.453712,0.39571 2.840707,0.68066 3.082193,0.6334 0.241394,-0.0473 0.817595,0.1948 1.280234,0.53807 0.46265,0.34327 1.514297,0.61645 2.336929,0.607 0.822655,-0.0115 2.469775,0.26811 3.660273,0.61681 2.659852,0.77885 5.200067,0.12887 8.236591,-2.1078 1.098791,-0.80929 2.320112,-1.53768 2.714097,-1.61847 0.394078,-0.0807 1.318065,-0.61738 2.053486,-1.19223 1.602061,-1.25226 3.857715,-2.09211 7.939315,-2.95581 3.400725,-0.71973 6.449874,-0.24667 7.896954,1.22507 0.82396,0.838 2.24396,1.0841 8.14223,1.41135 7.35641,0.40816 7.69881,0.39007 9.5028,-0.4997 0.9344,-0.46094 2.2189,-0.94185 2.85445,-1.06865 2.08578,-0.41611 6.12585,1.12444 9.96039,3.79808 3.44964,2.40519 3.73847,2.7217 5.79428,6.35046 1.51389,2.67226 2.47401,3.94423 3.19723,4.23564 1.15587,0.4659 1.82926,1.39139 3.36673,4.62719 0.891,1.8753 1.48256,2.49277 3.8531,4.02227 2.53269,1.63415 3.51805,2.09199 6.89705,3.2048 2.82467,0.93021 8.14968,-0.55203 10.55135,-2.93715 1.27182,-1.2631 1.86896,-1.58516 2.96206,-1.59773 1.59086,-0.0185 4.17182,1.62805 4.86263,3.10162 0.26288,0.56078 0.88455,1.26266 1.38143,1.55959 0.4969,0.29692 0.95056,0.77609 1.00816,1.06473 0.20007,1.00282 1.92627,1.1355 4.49064,0.345 2.29634,-0.70775 2.51536,-0.70407 3.13039,0.0542 0.8528,1.051 1.42731,1.27289 2.67213,1.03244 0.6365,-0.12276 1.88404,0.33452 3.36446,1.2336 l 2.35292,1.4291 5.13393,-0.71259 c 4.75823,-0.66049 5.25739,-0.6523 6.82029,0.11181 0.92747,0.45346 1.66042,1.04686 1.62871,1.31866 -0.0317,0.2718 -0.66831,0.95142 -1.41464,1.51024 -1.81868,1.36166 -1.44082,2.40668 0.77729,2.14986 1.42169,-0.1646 1.70816,-0.38084 2.55835,-1.93154 0.62574,-1.1415 1.53485,-2.05246 2.62479,-2.6303 3.86922,-2.05108 6.85411,-1.44142 10.47733,2.13983 1.34883,1.33319 3.18993,2.83928 4.09129,3.3468 0.90134,0.50764 3.01382,1.67969 4.69425,2.60471 3.20589,1.76452 4.13382,2.8402 4.64029,5.37898 0.22605,1.13308 0.0674,1.94134 -0.60431,3.0788 l -0.91092,1.54217 -6.93806,1.40166 c -3.81588,0.77102 -7.16367,1.48557 -7.43937,1.58827 -0.27582,0.10259 -1.19363,1.14023 -2.03967,2.30571 -1.68977,2.32737 -4.43032,4.90418 -5.42783,5.10313 -0.35026,0.0703 -1.08136,-0.25289 -1.62461,-0.71742 -0.54321,-0.46442 -1.28942,-0.78429 -1.65808,-0.71074 -0.83324,0.16621 -2.75744,3.18312 -3.34901,5.25079 -0.24337,0.85045 -0.90533,2.20116 -1.47106,3.00135 l -1.02869,1.45514 -1.94995,-1.4858 c -1.89355,-1.44281 -1.95703,-1.55347 -2.19796,-3.83162 l -0.24801,-2.34605 -1.19581,0.2386 c -0.65771,0.13118 -1.16481,0.39434 -1.12679,0.58487 0.11969,0.59986 -3.11284,5.23455 -4.31212,6.18263 -0.63108,0.49887 -1.76069,1.7425 -2.51022,2.76366 -2.12129,2.88988 -3.73908,3.33066 -9.41985,2.56598 -2.43379,-0.3276 -3.23359,-0.64239 -4.25775,-1.67588 -1.23018,-1.24155 -2.86691,-1.48846 -3.23942,-0.48886 -0.0861,0.23136 -0.79541,0.44356 -1.57614,0.47168 -1.29756,0.0473 -1.42371,0.15481 -1.46862,1.2578 -0.027,0.6636 -0.26843,1.71899 -0.53659,2.34536 -0.26808,0.62636 -0.57111,1.85247 -0.67339,2.72493 -0.25701,2.19205 -2.91727,5.28077 -5.53318,6.42434 -1.0988,0.48032 -3.68147,1.36108 -5.73933,1.95713 -2.05782,0.59617 -3.99049,1.24524 -4.29489,1.44246 -0.30431,0.19734 -1.57871,0.21821 -2.83193,0.0461 z"
       id="path3338"
       inkscape:connector-curvature="0" />
    <path
       id="path884"
       d="m 35.801349,275.75485 c -7.403116,-0.98235 -14.453529,-3.55731 -15.0579,-13.48113 -0.45036,-7.39523 -1.034001,-7.29855 2.146805,-20.48604 2.840747,-11.7776 3.22049,-14.13466 3.401491,-21.11245 l 0.157348,-6.06623 -0.879144,-1.61527 c -0.483526,-0.88841 -0.963406,-1.60604 -1.06638,-1.59473 -0.319089,0.035 -4.192172,4.62993 -6.545321,7.76516 -5.131246,6.8366 -8.0434408,13.5801 -8.5737278,19.85338 l -0.205178,2.42731 -1.655765,0.34374 c -3.335541,0.69245 -3.4152895,0.66968 -3.8855986,-1.10957 -0.6285354,-2.37778 -0.3316993,-8.31692 0.5461746,-10.92833 1.1906099,-3.54166 3.862871,-8.50245 7.6825188,-14.26187 4.240299,-6.39365 7.004717,-11.4429 8.022602,-14.65338 0.833131,-2.62771 0.933304,-2.68859 4.886135,-2.96917 l 2.743401,-0.19473 0.980825,2.49796 c 2.33593,5.94913 3.195732,10.13273 3.475457,16.91067 0.319575,7.74342 -0.682949,14.6216 -3.724178,31.51792 -1.473966,8.18899 -1.439697,9.1778 -0.608347,13.72302 1.435757,7.84971 9.741071,2.94743 13.445205,6.93619 0.892646,0.96125 0.920278,1.08043 0.697466,3.00925 -0.12759,1.1046 -0.35337,2.32909 -0.501728,2.72109 -0.424415,1.12146 -1.742425,1.26345 -5.482161,0.76721 z"
       style="fill:#009ee0;fill-opacity:1;stroke-width:0.31417665"
       inkscape:connector-curvature="0" />
    <path
       id="path882"
       d="m 1.0744394,257.392 -1.3852549,-0.12316 0.1702907,-1.26958 c 0.2612723,-1.94796 1.5129165,-3.56727 3.5140844,-4.54635 1.5522564,-0.75945 2.2736734,-0.88004 6.7473744,-1.12782 2.755097,-0.1526 5.543811,-0.28288 6.19714,-0.28951 l 1.187855,-0.012 v 3.00321 c 0,3.5498 0.908807,3.05769 -7.305911,3.95604 -5.7765245,0.63169 -6.3393945,0.65694 -9.1255786,0.40922 z"
       style="fill:#009ee0;fill-opacity:1;stroke-width:0.31417665"
       inkscape:connector-curvature="0" />
    <path
       id="path880"
       d="m 29.669595,253.33592 c -0.261985,-1.04379 0.07398,-3.11921 0.701171,-4.33215 0.750901,-1.45209 2.873413,-3.62334 5.507427,-5.63391 2.714641,-2.0721 5.070319,-4.48956 5.856772,-6.01037 1.693348,-3.27459 2.840414,-14.1053 2.090083,-19.73474 -1.022076,-7.66814 -4.990428,-16.20484 -10.164766,-21.8664 -0.870785,-0.95277 -1.583249,-1.87292 -1.583249,-2.04478 0,-0.17186 1.520243,-1.71985 3.378325,-3.43999 2.38173,-2.20491 3.422877,-2.98733 3.529379,-2.65236 0.419225,1.31864 5.70548,11.18015 6.892943,12.85877 2.569227,3.63192 5.979292,6.22056 9.328358,7.08131 0.781073,0.20075 1.957553,0.57155 2.614409,0.82401 1.729006,0.66455 4.103018,0.56686 8.088801,-0.33289 5.962846,-1.34603 7.861075,-0.96351 9.227675,1.85951 1.133233,2.34094 0.906099,2.75404 -2.061656,3.74968 -5.20412,1.74592 -12.061368,1.82132 -18.933947,0.20817 -2.117145,-0.49694 -2.891035,-0.56829 -3.167625,-0.29206 -0.415509,0.41496 -0.437964,3.14508 -0.0627,7.62037 0.210533,2.51056 0.138325,3.60389 -0.435719,6.59739 -1.744919,9.09938 -5.154473,15.75883 -10.74749,20.99171 -2.206168,2.0641 -3.008271,2.60861 -4.45779,3.02615 -0.972157,0.28005 -2.584308,0.91904 -3.582565,1.41999 l -1.815024,0.9108 z"
       style="fill:#009ee0;fill-opacity:1;stroke:none;stroke-width:0.31417665"
       inkscape:connector-curvature="0" />
    <path
       id="path878"
       d="m 11.729452,197.44224 c -0.47665,-0.14353 -1.367551,-0.57053 -1.9797588,-0.94891 -0.913366,-0.56448 -1.113129,-0.87773 -1.113129,-1.74556 v -1.05763 l 2.1381628,-0.20932 c 5.34128,-0.5229 9.654167,-2.28673 13.902136,-5.68553 4.53178,-3.62587 8.45692,-8.85212 14.844109,-19.76462 2.055624,-3.51205 3.352344,-5.41573 3.693804,-5.42281 0.640291,-0.0133 2.09475,1.65267 2.357767,2.70062 0.423845,1.68874 -2.010121,9.82136 -4.333227,14.47861 -4.487191,8.99571 -12.01963,15.11758 -21.357653,17.3581 -2.59813,0.62337 -6.58586,0.76867 -8.152211,0.29705 z"
       style="fill:#009ee0;fill-opacity:1;stroke:none;stroke-width:0.31417665"
       inkscape:connector-curvature="0" />
    <path
       id="path876"
       d="m -146.10217,193.00884 -51.31561,-0.16103 -1.0316,-0.73579 c -1.29754,-0.92549 -3.27894,-4.95019 -4.16015,-8.45034 -1.52098,-6.04121 -2.40205,-12.65411 -2.89099,-21.69827 -0.18366,-3.39727 -0.63047,-10.73826 -0.99291,-16.31329 -0.71952,-11.06754 -0.66775,-17.99449 0.21183,-28.35028 1.32735,-15.62757 3.74016,-25.000525 6.98257,-27.125032 0.89187,-0.584375 10.24305,-1.15336 40.59298,-2.469898 28.5494,-1.23844 59.393882,-0.220234 76.732587,2.532998 3.910226,0.620912 4.628805,1.170566 6.506206,4.976725 1.897647,3.847201 2.985199,8.220057 3.268178,13.140677 0.307879,5.35375 0.181939,6.62047 -0.681222,6.85202 -1.103606,0.29608 -4.634766,0.21844 -5.258932,-0.11565 -0.90224,-0.48286 -1.549608,-2.53382 -2.0753,-6.57484 -1.115255,-8.573126 -2.63032,-10.588706 -9.110106,-12.119779 -7.237787,-1.710174 -18.244751,-2.348672 -40.147461,-2.328913 -21.28584,0.01924 -37.72635,0.674228 -54.2223,2.160333 -4.07649,0.367251 -5.24153,0.587153 -6.50636,1.228085 -3.27757,1.660868 -5.72592,5.540954 -7.22605,11.451694 -1.14946,4.52902 -1.38181,7.50235 -1.72239,22.04048 -0.48965,20.90183 0.30595,31.02328 3.28956,41.84938 1.80304,6.54233 3.30139,8.76321 7.19294,10.66141 4.32729,2.11076 2.63263,2.03556 45.57378,2.0224 37.21846,-0.0119 49.508461,-0.2445 54.33862,-1.03062 4.494909,-0.73157 7.071142,-5.39326 8.550193,-15.47162 0.68995,-4.70132 0.772619,-4.98538 1.689275,-5.80441 1.859079,-1.66108 4.295538,-1.46117 5.332173,0.43749 0.931511,1.70612 0.736711,7.22264 -0.456297,12.9217 -1.538138,7.34778 -2.947747,12.3218 -3.768256,13.29692 -1.601345,1.9031 -6.322676,3.04003 -13.419811,3.23157 -2.17774,0.0588 -27.051547,0.0344 -55.275147,-0.0541 z"
       style="fill:#000000;stroke-width:0.31417665"
       inkscape:connector-curvature="0" />
    <path
       id="path874"
       d="m -1.6582267,187.80947 c -2.0638766,-0.51005 -3.3048698,-1.17915 -4.7969943,-2.58641 l -1.2159023,-1.14675 0.7414016,-0.60034 c 1.1477908,-0.92942 3.6272001,-1.55194 8.1223588,-2.03934 2.2648626,-0.24556 4.7593641,-0.65477 5.5433591,-0.90936 8.6158348,-2.79786 13.9883568,-6.24132 20.9525818,-13.42941 3.408082,-3.51762 10.42307,-12.21824 10.942515,-13.57187 0.105326,-0.27443 0.67538,-0.43194 1.563324,-0.43194 1.634106,0 1.631399,-0.18835 0.06602,4.58274 -3.534484,10.77293 -10.827642,19.68888 -21.247459,25.97521 -2.343019,1.41356 -2.786766,1.54926 -9.9446268,3.04116 -8.0541753,1.67873 -8.3332711,1.70777 -10.7266146,1.11631 z"
       style="fill:#009ee0;fill-opacity:1;stroke:none;stroke-width:0.31417665"
       inkscape:connector-curvature="0" />
    <path
       id="path2161"
       d="m -154.70084,181.13341 c 0.30522,-0.79539 11.92811,-16.92973 14.51374,-20.14728 5.3233,-6.62431 13.10065,-14.77974 16.04216,-16.82205 2.18903,-1.51984 6.05898,-2.76922 9.84032,-3.17684 4.50333,-0.48544 41.527412,-0.46782 70.200148,0.0334 24.325171,0.42525 23.658353,0.3693 30.598544,2.56766 2.149325,0.68082 3.968055,1.17768 4.041605,1.10412 0.073503,-0.0735 -0.2549314,-0.64333 -0.72999,-1.26617 -1.117583,-1.4652 -3.600388,-3.09513 -6.196618,-4.06796 -4.336338,-1.62487 -5.806234,-1.72545 -30.564405,-2.09136 -22.325397,-0.32995 -32.368023,-0.56686 -59.076304,-1.3936 l -12.51214,-0.38729 -1.85738,-0.92629 c -3.27163,-1.63159 -5.88647,-4.50853 -18.78734,-20.67047 -6.85136,-8.58324 -12.45702,-15.682426 -12.45702,-15.775966 0,-0.31892 7.1255,0.26235 7.5777,0.61815 0.24779,0.19497 3.57605,4.535876 7.39614,9.646466 8.22717,11.00647 10.68379,13.98614 14.46819,17.54861 3.74769,3.52792 5.0628,4.39637 7.40345,4.88898 4.51043,0.94923 16.774201,1.17105 44.193365,0.79932 31.7879,-0.43096 42.442746,-0.20181 47.408558,1.01961 3.965347,0.97534 8.834597,2.66619 11.877672,4.12456 1.284358,0.61549 2.3906597,1.06362 2.4584744,0.99581 0.2955774,-0.29558 -0.9447743,-2.06251 -2.4098494,-3.43293 -4.595426,-4.29847 -11.439364,-6.97635 -20.003746,-7.82698 -3.431213,-0.34079 -23.118971,-0.498 -35.952619,-0.28708 -4.00705,0.0659 -11.989468,0.11637 -17.738729,0.11234 -9.390307,-0.007 -10.849967,-0.0787 -14.355656,-0.70974 -4.64343,-0.83574 -9.83528,-2.5022 -12.89025,-4.13746 -1.83185,-0.98055 -2.33359,-1.42835 -2.91295,-2.59971 -1.66663,-3.36963 -1.84176,-12.54416 -0.37924,-19.866546 l 0.33216,-1.66301 h 2.51165 c 1.3814,0 2.53428,0.03562 2.56194,0.0792 0.0277,0.04358 0.14042,3.571506 0.25056,7.839886 0.21921,8.49524 0.32474,9.02303 2.24065,11.20511 1.39681,1.59089 2.27608,1.99217 5.23725,2.39015 6.271784,0.84294 11.075867,0.98111 33.923851,0.97567 14.100136,-0.004 25.747289,0.13162 28.033526,0.32486 10.723171,0.90642 19.304285,3.04836 26.775096,6.68337 3.622462,1.76254 4.0260846,2.05563 6.6095372,4.7993 4.8604866,5.16194 9.5670333,12.06048 12.2589584,17.96836 l 1.2268268,2.69249 -0.1147067,-1.93017 c -0.25581,-4.30472 -6.5950859,-14.79895 -16.5176857,-27.34393 -1.848808,-2.3374 -3.361452,-4.36056 -3.361452,-4.49592 0,-0.45564 1.401096,-1.2323 2.223077,-1.2323 3.9978239,0.35609 -7.042688,-1.578 12.2018903,-0.63356 1.1102559,0 1.786847,0.29038 3.6831758,1.58074 1.2776848,0.86941 2.5492311,1.76031 2.8256551,1.97976 0.809738,0.64291 7.1541908,11.40096 9.3550858,15.86311 1.929705,3.02302 3.873561,13.96847 6.622421,11.5693 1.153479,-1.01278 1.172941,-1.06766 0.988615,-2.78816 -0.429913,-4.01298 -2.736027,-11.21518 -5.470593,-17.08513 -0.762609,-1.63698 -1.386561,-3.16706 -1.386561,-3.40021 0,-0.23313 0.412742,-0.8858 0.917202,-1.45039 0.883051,-0.9883 0.950878,-1.00913 1.821389,-0.55934 1.47271,0.76095 3.998477,3.52202 5.075176,5.54802 0.551839,1.03838 1.819691,4.63193 2.817437,7.98565 0.997746,3.35373 1.927986,6.09769 2.067202,6.09769 0.139215,0 0.724433,-0.5917 1.300483,-1.3149 2.65825,-3.33728 3.622154,-3.80186 4.951682,-2.38665 0.859789,0.91521 0.874502,2.11216 0.05522,4.49345 -0.846549,2.46057 -0.813669,3.14225 0.173283,3.59193 0.443746,0.20219 1.013931,0.36761 1.267057,0.36761 0.622385,0 0.578841,0.82317 -0.156623,2.96082 -2.175638,6.32362 -6.867033,11.90285 -14.271003,16.97179 -7.033287,4.81515 -16.1586158,7.82489 -24.8127217,8.18381 -4.2927719,0.17803 -6.7903607,-0.32025 -8.9225383,-1.78008 -1.638263,-1.12167 -1.696982,-2.10576 -0.186381,-3.12376 1.6502915,-1.11212 3.8315227,-1.63165 8.3853649,-1.99722 14.1421771,-1.13528 24.8441891,-6.27432 32.6127021,-15.66041 1.219227,-1.47309 1.246717,-1.54555 0.367513,-0.96865 -9.646889,6.32983 -20.157829,10.95117 -28.1213318,12.36409 -2.3891162,0.42388 -4.1630913,0.51261 -7.7606886,0.38812 -4.9414816,-0.171 -7.8914376,-0.76447 -11.3059906,-2.27454 -1.888231,-0.83507 -2.129103,-1.26774 -1.990671,-3.57578 l 0.08039,-1.3407 -25.974571,-0.15972 c -14.286017,-0.0879 -29.318371,-0.15925 -33.40524,-0.15866 -9.451567,0.001 -18.643322,0.60929 -26.462978,1.75024 -3.69087,0.53852 -4.337,1.01919 -5.57108,4.14439 -0.83144,2.10553 -0.99447,6.1839 -0.48213,12.06042 0.31902,3.65906 -0.0693,5.81368 -1.18938,6.59816 -0.408,0.28576 -1.41954,0.46162 -2.65537,0.46162 -2.37258,0 -2.37167,0.001 -2.89827,-4.29257 -0.7713,-6.28914 -0.29536,-13.12555 1.23365,-17.72022 0.61311,-1.84239 0.87559,-2.19915 2.44483,-3.32285 3.3076,-2.36852 8.8333,-3.95101 16.558079,-4.74202 1.892933,-0.19384 9.797657,-0.33365 18.372252,-0.32496 8.277415,0.008 23.103551,-0.0778 32.94696,-0.19158 11.459728,-0.13245 21.077346,-0.079 26.73876,0.14876 4.862897,0.19557 8.9030414,0.2942 8.9780757,0.21916 0.3152771,-0.31528 -3.3881097,-2.0945 -5.6030397,-2.69187 -4.361097,-1.17619 -6.360033,-1.30116 -25.520733,-1.59536 -10.453171,-0.16049 -27.415843,-0.45903 -37.694794,-0.66341 -28.39515,-0.56457 -30.98516,-0.55584 -33.41849,0.11257 -4.29932,1.1811 -8.05959,2.99058 -11.24508,5.41128 -3.21843,2.44571 -6.92939,6.61303 -15.75744,17.69521 l -9.52554,11.9578 h -3.30975 c -2.79358,0 -3.28166,-0.0731 -3.12965,-0.46931 z"
       style="fill:#009ee0;fill-opacity:1;stroke:none;stroke-width:0.31417665"
       inkscape:connector-curvature="0" />
  </g>
</svg>
